<?xml version="1.0" encoding="UTF-8"?>
<svg id="Layer_2" data-name="Layer 2" xmlns="http://www.w3.org/2000/svg" viewBox="0 0 877.13 380">
  <defs>
    <style>
      .cls-1 {
        fill: #297fa0;
      }

      .cls-1, .cls-2, .cls-3 {
        stroke-width: 0px;
      }

      .cls-2 {
        fill: #205474;
      }

      .cls-3 {
        fill: #0e2636;
      }
    </style>
  </defs>
  <g id="Layer_1-2" data-name="Layer 1">
    <g>
      <g>
        <path class="cls-1" d="M0,296.83c56.23,6.05,99.13-.89,128.16-8.5,70.11-18.38,102.83-55.57,179.24-68.76,35.6-6.15,66.99-.62,71.27,18.42,4,17.79,9.14,89.02-150.31,142.02,0,0,51.52-48.1,48.46-70.68,0,0-47.82,59.92-178.78,56.82,0,0,87.58-20.83,92.68-51.07,0,0-104.42,38.4-190.72-18.24Z"/>
        <path class="cls-2" d="M133.09.14s222.59-12.48,242.54,195.95c-16.54-20.34-78.38-13.23-127.76,3.95-56.05,19.5-95.47,54.72-136.52,57.5,0,0,200.8-141.85,21.74-257.4Z"/>
      </g>
      <g>
        <g>
          <path class="cls-3" d="M472.24,268.56h33.11c19.59,0,29.99,9.46,29.99,27.43v1.63c0,14.36-6.09,20.23-12.4,22.57,6.94,2.79,14.98,8.76,14.98,24.94v3.27c0,21.12-11.48,31.6-32.58,31.6h-33.1v-111.44ZM501.17,312.18c8.62,0,10.95-3.27,10.95-11.85v-2.12c0-8.17-3.09-11.61-10.55-11.61h-5.96v25.58h5.56ZM495.61,362.15h6.69c7.81,0,11.08-3.68,11.08-14.07v-3.77c0-10.29-2.85-14.68-12.54-14.68h-5.23v32.52Z"/>
          <path class="cls-3" d="M595.58,332.03h-29.77v27.97h34.05l-2.83,20h-54.97v-111.44h54.95v20.21h-31.19v23.16h29.77v20.11Z"/>
          <path class="cls-3" d="M628.39,355.16l-3.41,24.84h-24.22l19.69-111.44h34.5l20.01,111.44h-25.01l-3.6-24.84h-17.96ZM643.54,334.6c-2.18-15.52-4.54-34.97-5.81-45.37h-.84c-.83,9.61-3.52,30.02-5.73,45.37h12.39Z"/>
          <path class="cls-3" d="M702.52,333.35v46.65h-23.84v-111.44h34.01c20.46,0,30.78,9.77,30.78,29.69v1.48c0,15.6-7.13,21.9-13.13,24.41,8.06,3.69,11.86,10.09,11.86,25.95v2.45c0,11.79.25,22.22,1.04,27.47h-23.33c-1.33-4.58-1.58-16.18-1.58-28.31v-2.42c0-12.94-2.2-15.92-11.39-15.92h-4.41ZM702.58,315.02h4.72c8.68,0,12.09-3.02,12.09-13.72v-1.98c0-8.56-2.6-12.46-10.81-12.46h-6v28.17Z"/>
          <path class="cls-3" d="M749.45,268.56h29.81c26.83,0,37.24,14.28,37.24,46.19v15.44c0,32.01-8.89,49.81-37.28,49.81h-29.78v-111.44ZM773.6,361.35h4.54c10.62,0,13.34-7.33,13.34-29.73v-18.4c0-19.1-2.66-25.84-13.3-25.84h-4.59v73.97Z"/>
        </g>
        <g>
          <path class="cls-3" d="M481.32,20.21h-19.86V0h63.7v20.21h-19.82v91.23h-24.02V20.21Z"/>
          <path class="cls-3" d="M530.81,0h24.08v42.41h17.34V0h24.2v111.44h-24.2v-48.47h-17.34v48.47h-24.08V0Z"/>
          <path class="cls-3" d="M658.9,63.48h-29.77v27.97h34.05l-2.83,20h-54.97V0h54.95v20.21h-31.19v23.16h29.77v20.11Z"/>
        </g>
        <g>
          <path class="cls-3" d="M492.76,212.69v2.84c.41,8.48,2.72,13.71,9.35,13.71s8.45-5.02,8.45-10.96c0-8.75-3.18-12.73-15.65-20.48-16.85-10.23-23.84-17.88-23.84-34.27,0-17.9,9.3-31.21,31.02-31.21,24.66,0,30.57,15.88,30.7,31.39v2.36h-23.02v-2.46c-.27-7.39-1.58-12.84-7.73-12.84-5.05,0-7.13,3.59-7.13,9.84s2.02,9.8,13.07,16.28c19.08,11.31,26.79,19.53,26.79,38.13s-9,32.63-32.95,32.63-32.4-14.48-32.75-32.51v-2.46h23.69Z"/>
          <path class="cls-3" d="M560.42,220.89l-3.41,24.84h-24.22l19.69-111.44h34.5l20.01,111.44h-25.01l-3.6-24.84h-17.96ZM575.57,200.32c-2.18-15.52-4.54-34.97-5.81-45.37h-.84c-.83,9.61-3.52,30.02-5.73,45.37h12.39Z"/>
          <path class="cls-3" d="M634.78,134.28v111.44h-24.06v-111.44h24.06Z"/>
          <path class="cls-3" d="M643.85,134.28h24.08v91.4h32.25l-2.21,20.05h-54.12v-111.44Z"/>
          <path class="cls-3" d="M729.1,134.28v111.44h-24.06v-111.44h24.06Z"/>
          <path class="cls-3" d="M738.17,245.73v-111.44h26.43c12,38.18,18.6,64.75,19.65,69.77h.48c-1.14-14.32-1.64-33.39-1.64-50.1v-19.67h21.61v111.44h-26.25c-11.96-40.48-18.54-68.83-19.6-73.18h-.54c.87,13.3,1.4,34.5,1.4,52.47v20.71h-21.55Z"/>
          <path class="cls-3" d="M877.13,245.73h-17.82c-.46-2.58-.83-5.79-.96-8.59-4.34,8.36-12.23,10.53-20.29,10.53-20.43,0-28.66-15.28-28.66-47.53v-19.33c0-34.18,12.23-48.4,35.42-48.4,29.34,0,31.88,22.6,32.06,32.23v1.85h-24.13v-2.26c-.17-5.42-.89-12.31-8.43-12.31s-9.97,9.21-9.97,28.26v21.06c0,19.72,2.34,27.06,9.73,27.06,6.83,0,8.95-5.61,8.95-16.57v-10.39h-9.64v-19.36h33.74v63.75Z"/>
        </g>
      </g>
    </g>
  </g>
</svg>