<svg width="24" height="24" viewBox="0 0 24 24" fill="none" xmlns="http://www.w3.org/2000/svg">
<path d="M12 16C14.2091 16 16 14.2091 16 12C16 9.79086 14.2091 8 12 8C9.79086 8 8 9.79086 8 12C8 14.2091 9.79086 16 12 16Z" fill="#307fe2"/>
<path fill-rule="evenodd" clip-rule="evenodd" d="M10 3C10 2.44772 10.4477 2 11 2H13C13.5523 2 14 2.44771 14 3V3.47683C14 3.93311 14.3114 4.32531 14.7401 4.48159C14.947 4.55699 15.1498 4.6407 15.3483 4.73229C15.7611 4.92279 16.2565 4.86484 16.578 4.54335L16.7071 4.41422C17.0976 4.02369 17.7308 4.02369 18.1213 4.41422L19.5355 5.82843C19.9261 6.21895 19.9261 6.85212 19.5355 7.24264L19.4245 7.35366C19.1006 7.67757 19.0444 8.17753 19.2398 8.59184C19.3424 8.80933 19.4354 9.03219 19.5184 9.25987C19.6747 9.68856 20.0669 10 20.5232 10H21C21.5523 10 22 10.4477 22 11V13C22 13.5523 21.5523 14 21 14H20.5232C20.0669 14 19.6747 14.3114 19.5184 14.7401C19.4392 14.9574 19.3508 15.1703 19.2538 15.3783C19.0609 15.7919 19.1179 16.2895 19.4406 16.6122L19.5355 16.7071C19.9261 17.0976 19.9261 17.7308 19.5355 18.1213L18.1213 19.5355C17.7308 19.9261 17.0976 19.9261 16.7071 19.5355L16.6122 19.4406C16.2895 19.1179 15.7919 19.0609 15.3783 19.2538C15.1703 19.3508 14.9574 19.4392 14.7401 19.5184C14.3114 19.6747 14 20.0669 14 20.5232V21C14 21.5523 13.5523 22 13 22H11C10.4477 22 10 21.5523 10 21V20.5232C10 20.0669 9.68856 19.6747 9.25987 19.5184C9.09305 19.4576 8.92882 19.3914 8.7674 19.32C8.35759 19.1388 7.87108 19.2 7.55423 19.5168L7.53553 19.5355C7.14501 19.9261 6.51184 19.9261 6.12132 19.5355L4.66873 18.0829C4.2994 17.7136 4.2994 17.1148 4.66873 16.7455V16.7455C4.97943 16.4348 5.02965 15.9535 4.83385 15.5601C4.70179 15.2948 4.58404 15.0212 4.48159 14.7401C4.32531 14.3114 3.93311 14 3.47683 14H3C2.44772 14 2 13.5523 2 13V11C2 10.4477 2.44772 10 3 10H3.47683C3.93311 10 4.32531 9.68856 4.48159 9.25988C4.56079 9.0426 4.64915 8.82972 4.74619 8.62171C4.93913 8.20813 4.88206 7.71048 4.55936 7.38778L4.41421 7.24264C4.02369 6.85211 4.02369 6.21895 4.41421 5.82842L5.82843 4.41421C6.21895 4.02369 6.85212 4.02369 7.24264 4.41421L7.38779 4.55936C7.71049 4.88206 8.20814 4.93913 8.62171 4.74619C8.82972 4.64915 9.0426 4.56079 9.25988 4.48159C9.68856 4.32531 10 3.93311 10 3.47682V3ZM12 6C8.68629 6 6 8.68629 6 12C6 15.3137 8.68629 18 12 18C15.3137 18 18 15.3137 18 12C18 8.68629 15.3137 6 12 6Z" fill="#307fe2"/>
</svg>
