<svg width="24" height="24" viewBox="0 0 24 24" fill="none" xmlns="http://www.w3.org/2000/svg">
<g clip-path="url(#clip0_906_343)">
<path d="M6.00002 4.20001C6.00002 4.04088 6.06324 3.88826 6.17576 3.77574C6.28828 3.66322 6.44089 3.60001 6.60002 3.60001H10.2C10.3592 3.60001 10.5118 3.66322 10.6243 3.77574C10.7368 3.88826 10.8 4.04088 10.8 4.20001V7.80001C10.8 7.95914 10.7368 8.11175 10.6243 8.22427C10.5118 8.33679 10.3592 8.40001 10.2 8.40001H6.60002C6.44089 8.40001 6.28828 8.33679 6.17576 8.22427C6.06324 8.11175 6.00002 7.95914 6.00002 7.80001V4.20001ZM13.8 3.60001C13.6409 3.60001 13.4883 3.66322 13.3758 3.77574C13.2632 3.88826 13.2 4.04088 13.2 4.20001V7.80001C13.2 7.95914 13.2632 8.11175 13.3758 8.22427C13.4883 8.33679 13.6409 8.40001 13.8 8.40001H17.4C17.5592 8.40001 17.7118 8.33679 17.8243 8.22427C17.9368 8.11175 18 7.95914 18 7.80001V4.20001C18 4.04088 17.9368 3.88826 17.8243 3.77574C17.7118 3.66322 17.5592 3.60001 17.4 3.60001H13.8ZM14.4 7.20001V4.80001H16.8V7.20001H14.4ZM2.40002 14.4C2.40002 13.127 2.90574 11.9061 3.80591 11.0059C4.70609 10.1057 5.92699 9.60001 7.20002 9.60001H16.8C18.0731 9.60001 19.294 10.1057 20.1941 11.0059C21.0943 11.9061 21.6 13.127 21.6 14.4C21.6 15.673 21.0943 16.8939 20.1941 17.7941C19.294 18.6943 18.0731 19.2 16.8 19.2H7.20002C5.92699 19.2 4.70609 18.6943 3.80591 17.7941C2.90574 16.8939 2.40002 15.673 2.40002 14.4ZM8.40002 14.4C8.40002 14.0817 8.2736 13.7765 8.04855 13.5515C7.82351 13.3264 7.51828 13.2 7.20002 13.2C6.88176 13.2 6.57654 13.3264 6.3515 13.5515C6.12645 13.7765 6.00002 14.0817 6.00002 14.4C6.00002 14.7183 6.12645 15.0235 6.3515 15.2485C6.57654 15.4736 6.88176 15.6 7.20002 15.6C7.51828 15.6 7.82351 15.4736 8.04855 15.2485C8.2736 15.0235 8.40002 14.7183 8.40002 14.4ZM13.2 14.4C13.2 14.0817 13.0736 13.7765 12.8486 13.5515C12.6235 13.3264 12.3183 13.2 12 13.2C11.6818 13.2 11.3765 13.3264 11.1515 13.5515C10.9265 13.7765 10.8 14.0817 10.8 14.4C10.8 14.7183 10.9265 15.0235 11.1515 15.2485C11.3765 15.4736 11.6818 15.6 12 15.6C12.3183 15.6 12.6235 15.4736 12.8486 15.2485C13.0736 15.0235 13.2 14.7183 13.2 14.4ZM16.8 15.6C17.1183 15.6 17.4235 15.4736 17.6486 15.2485C17.8736 15.0235 18 14.7183 18 14.4C18 14.0817 17.8736 13.7765 17.6486 13.5515C17.4235 13.3264 17.1183 13.2 16.8 13.2C16.4818 13.2 16.1765 13.3264 15.9515 13.5515C15.7265 13.7765 15.6 14.0817 15.6 14.4C15.6 14.7183 15.7265 15.0235 15.9515 15.2485C16.1765 15.4736 16.4818 15.6 16.8 15.6Z" fill="#307fe2"/>
</g>
<defs>
<clipPath id="clip0_906_343">
<rect width="24" height="24" fill="white"/>
</clipPath>
</defs>
</svg>
