<?xml version="1.0" encoding="UTF-8"?>
<svg id="Layer_2" data-name="Layer 2" xmlns="http://www.w3.org/2000/svg" viewBox="0 0 16 16">
  <defs>
    <style>
      .cls-1 {
        fill: #307fe2;
        stroke-width: 0px;
      }
    </style>
  </defs>
  <g id="Layer_1-2" data-name="Layer 1">
    <g id="tsb_symbol_white_16x16">
      <path class="cls-1" d="M0,12.66c2.37.24,4.17-.04,5.4-.34,2.95-.74,4.33-2.23,7.55-2.77,1.5-.25,2.82-.02,3,.74.17.72.38,3.58-6.33,5.71,0,0,2.17-1.93,2.04-2.84,0,0-2.01,2.41-7.53,2.28,0,0,3.69-.84,3.9-2.05,0,0-4.4,1.54-8.03-.73Z"/>
      <path class="cls-1" d="M5.6,0S14.98-.5,15.82,7.89c-.7-.82-3.3-.53-5.38.16-2.36.78-4.02,2.2-5.75,2.31C4.69,10.36,13.14,4.65,5.6,0Z"/>
    </g>
  </g>
</svg>