<svg width="24" height="24" viewBox="0 0 24 24" fill="none" xmlns="http://www.w3.org/2000/svg">
<g clip-path="url(#clip0_906_315)">
<path fill-rule="evenodd" clip-rule="evenodd" d="M23 12C23 18.0751 18.0751 23 12 23C5.92487 23 1 18.0751 1 12C1 5.92487 5.92487 1 12 1C18.0751 1 23 5.92487 23 12ZM12 19C15.866 19 19 15.866 19 12C19 8.13401 15.866 5 12 5C8.13401 5 5 8.13401 5 12C5 15.866 8.13401 19 12 19ZM12 21C16.9706 21 21 16.9706 21 12C21 7.02944 16.9706 3 12 3C7.02944 3 3 7.02944 3 12C3 16.9706 7.02944 21 12 21ZM13 15.8095C14.3539 15.5873 15 14.7725 15 13.5926C15 12.2063 14.0112 11.8095 13.0506 11.4921L12.1067 11.1799C11.073 10.836 10.8258 10.6085 10.8258 10.1534C10.8258 9.69312 11.2584 9.39153 11.8989 9.39153C12.764 9.39153 13.1685 9.83598 13.2135 10.7619L14.7753 10.545C14.7022 9.29101 14.2809 8.48677 13 8.25397V7H11V8.24339C9.75843 8.45503 9.20225 9.19048 9.19663 10.3598C9.18539 11.6667 10.0787 12.1481 11.0562 12.4762L11.9944 12.7778C12.9438 13.0899 13.3034 13.3175 13.3034 13.8201C13.3034 14.3598 12.8596 14.6614 12.1461 14.6614C11.2079 14.6614 10.7697 14.2222 10.6685 13.127L9 13.3651C9.10674 14.746 9.61236 15.5767 11 15.8095V17H13V15.8095Z" fill="#307fe2"/>
</g>
<defs>
<clipPath id="clip0_906_315">
<rect width="22" height="22" fill="white" transform="translate(1 1)"/>
</clipPath>
</defs>
</svg>
