<svg width="24" height="24" viewBox="0 0 24 24" fill="none" xmlns="http://www.w3.org/2000/svg">
<rect x="22" y="21" width="20" height="3" rx="1.5" transform="rotate(-180 22 21)" fill="white"/>
<path fill-rule="evenodd" clip-rule="evenodd" d="M16.6245 9.29155C16.4065 9.10456 16.1294 9.00719 15.8463 9.01806C15.667 9.01206 15.4887 9.04885 15.3254 9.12558C15.1621 9.2023 15.0181 9.3169 14.9045 9.46047L13.5 11.2453L13.5 1.82491C13.5 0.996486 12.8284 0.324913 12 0.324913C11.1716 0.324913 10.5 0.996486 10.5 1.82491L10.5 11.3097L9.11419 9.50068C9.02194 9.36851 8.90473 9.25702 8.76964 9.17294C8.63456 9.08887 8.48439 9.03395 8.3282 9.0115C8.17201 8.98905 8.01305 8.99954 7.86089 9.04233C7.70873 9.08512 7.56654 9.15933 7.44289 9.26048C7.31925 9.36162 7.21671 9.48761 7.14147 9.63084C7.06622 9.77407 7.01984 9.93157 7.00511 10.0938C6.99037 10.2561 7.0076 10.4198 7.05575 10.575C7.1039 10.7302 7.18197 10.8737 7.28525 10.9968L10.6474 15.3324C10.8005 15.5387 10.9971 15.7061 11.2224 15.8218C11.4477 15.9375 11.6956 15.9985 11.9471 16C12.1973 15.998 12.444 15.9393 12.6699 15.8282C12.8958 15.717 13.0954 15.556 13.2546 15.3565L16.7257 10.9486C16.9191 10.7123 17.0166 10.4079 16.9977 10.099C16.9788 9.79016 16.8451 9.50081 16.6245 9.29155Z" fill="white"/>
</svg>
