<svg width="24" height="24" viewBox="0 0 24 24" fill="none" xmlns="http://www.w3.org/2000/svg">
<g clip-path="url(#clip0_906_328)">
<path fill-rule="evenodd" clip-rule="evenodd" d="M2 6C2 4.89543 2.89543 4 4 4H20C21.1046 4 22 4.89543 22 6V13.25C22 14.3546 21.1046 15.25 20 15.25H13V18H16.375C16.9273 18 17.375 18.4477 17.375 19C17.375 19.5523 16.9273 20 16.375 20H7.625C7.07272 20 6.625 19.5523 6.625 19C6.625 18.4477 7.07272 18 7.625 18H11V15.25H4C2.89543 15.25 2 14.3546 2 13.25V6ZM7.48016 6.42382C7.16195 6.15865 6.68903 6.20164 6.42385 6.51985C6.15868 6.83806 6.20167 7.31098 6.51988 7.57615L8.82848 9.49999L6.51988 11.4238C6.20167 11.689 6.15868 12.1619 6.42385 12.4801C6.68903 12.7983 7.16195 12.8413 7.48016 12.5762L10.4802 10.0762C10.6512 9.93366 10.75 9.72257 10.75 9.49999C10.75 9.2774 10.6512 9.06632 10.4802 8.92382L7.48016 6.42382ZM12.75 11.375C12.3358 11.375 12 11.7108 12 12.125C12 12.5392 12.3358 12.875 12.75 12.875H17.25C17.6642 12.875 18 12.5392 18 12.125C18 11.7108 17.6642 11.375 17.25 11.375H12.75Z" fill="white"/>
</g>
<defs>
<clipPath id="clip0_906_328">
<rect width="22" height="22" fill="white" transform="translate(1 1)"/>
</clipPath>
</defs>
</svg>
