<svg width="24" height="24" viewBox="0 0 24 24" fill="none" xmlns="http://www.w3.org/2000/svg">
<path fill-rule="evenodd" clip-rule="evenodd" d="M4.9507 8.92185C5.35733 8.80567 5.7621 9.11099 5.7621 9.53389V13.6725C5.7621 14.2949 6.5632 14.5474 6.92009 14.0376L10.9711 8.25045C11.3148 7.75936 10.8511 7.10871 10.2747 7.27339L10.1381 7.31244C9.73143 7.42862 9.32666 7.1233 9.32666 6.7004V2.56177C9.32666 1.93943 8.52555 1.6869 8.16866 2.19674L4.11769 7.98384C3.77393 8.47494 4.23763 9.12559 4.81403 8.9609L4.9507 8.92185Z" fill="white"/>
<path fill-rule="evenodd" clip-rule="evenodd" d="M17.9036 11.5863C17.4969 11.7025 17.0922 11.3972 17.0922 10.9743V3.83485C17.0922 3.21251 16.2911 2.95999 15.9342 3.46983L9.20978 13.0761C8.86601 13.5672 9.32972 14.2178 9.90611 14.0532L11.1885 13.6868C11.5952 13.5706 11.9999 13.8759 11.9999 14.2988V21.4382C11.9999 22.0605 12.801 22.3131 13.1579 21.8032L19.8823 12.197C20.2261 11.7059 19.7624 11.0552 19.186 11.2199L17.9036 11.5863Z" fill="white"/>
</svg>
