<svg id="Layer_2" xmlns="http://www.w3.org/2000/svg" viewBox="0 0 27 32">
  <defs>
    <style>
      .cls-1 {
        fill: #fff;
      }
    </style>
  </defs>
  <g id="Layer_1-2" data-name="Layer_1">
    <g>
      <g>
        <path class="cls-1" d="M6.01,6.24H0v-2.59C0,1.73,1.46.16,3.32.01l2.69,6.22Z"/>
        <polygon class="cls-1" points="8.08 6.24 5.38 0 11.14 0 13.85 6.24 8.08 6.24"/>
        <polygon class="cls-1" points="15.92 6.24 13.21 0 18.98 0 21.7 6.24 15.92 6.24"/>
        <path class="cls-1" d="M27,3.65v2.59h-3.23l-2.72-6.24h2.34c1.99,0,3.6,1.63,3.6,3.65Z"/>
      </g>
      <path class="cls-1" d="M0,7.69v13.76C0,22.63.56,23.74,1.51,24.42l9.1,6.56c1.91,1.38,4.48,1.35,6.36-.07l8.58-6.49c.91-.69,1.45-1.77,1.45-2.92V7.69H0ZM1.48,9.11h2.73v1.5h-1.24v1.25h-1.49v-2.75ZM1.48,19.27v-4.23h1.49v4.23h-1.49ZM5.66,25.44l-2.98-2.15c-.19-.14-.37-.3-.53-.49l1.13-.97c.08.09.16.17.26.24l2.98,2.15-.87,1.22ZM7.49,9.11h4.37v1.5h-4.37v-1.5ZM11.68,29.77c-.08-.05-.17-.11-.25-.17l-3.22-2.32.87-1.22,3.22,2.32c.05.04.1.07.15.1l-.77,1.28ZM11.93,21.65c-.29.17-.66-.04-.66-.38v-6.55c0-.34.37-.55.66-.38l5.6,3.28c.29.17.29.59,0,.76l-5.6,3.28ZM16.07,29.55c-.21.16-.43.3-.67.41l-.64-1.35c.15-.07.29-.15.42-.25l2.85-2.15.89,1.2-2.85,2.15ZM19.51,10.61h-4.37v-1.5h4.37v1.5ZM24.37,23.28l-2.93,2.21-.89-1.2,2.93-2.22c.09-.07.18-.15.25-.24l1.16.94c-.15.19-.32.36-.51.5ZM25.52,19.25h-1.49v-4.23h1.49v4.23ZM25.52,11.86h-1.49v-1.25h-1.24v-1.5h2.73v2.75Z"/>
    </g>
  </g>
</svg>