<?xml version="1.0" encoding="UTF-8"?>
<svg id="Layer_2" data-name="Layer 2" width="24" height="24" xmlns="http://www.w3.org/2000/svg" viewBox="0 0 24 24">
  <defs>
    <style>
      .cls-1 {
        fill: #fff;
        stroke-width: 0px;
      }
    </style>
  </defs>
  <g id="Layer_1-2" data-name="Layer 1">
    <g id="tsb_symbol_white_24x24">
      <path class="cls-1" d="M0,18.98c3.55.37,6.26-.05,8.09-.51,4.43-1.11,6.49-3.35,11.32-4.15,2.25-.37,4.23-.04,4.5,1.11.25,1.07.58,5.37-9.49,8.57,0,0,3.25-2.9,3.06-4.26,0,0-3.02,3.61-11.29,3.43,0,0,5.53-1.26,5.85-3.08,0,0-6.59,2.32-12.05-1.1Z"/>
      <path class="cls-1" d="M8.41,0s14.06-.75,15.32,11.82c-1.04-1.23-4.95-.8-8.07.24-3.54,1.18-6.03,3.3-8.62,3.47,0,0,12.68-8.56,1.37-15.53Z"/>
    </g>
  </g>
</svg>