<svg width="24" height="24" viewBox="0 0 24 24" fill="none" xmlns="http://www.w3.org/2000/svg">
<path fill-rule="evenodd" clip-rule="evenodd" d="M5.88257 1.91669C5.33028 1.91669 4.88257 2.3644 4.88257 2.91669L4.88258 15.0863C4.88258 15.3699 5.00298 15.6401 5.21381 15.8298L11.4971 21.4817C11.8774 21.8237 12.4545 21.8237 12.8347 21.4815L19.2182 15.7371C19.4289 15.5475 19.5492 15.2773 19.5492 14.9938L19.5492 2.91669C19.5492 2.3644 19.1015 1.91669 18.5492 1.91669H5.88257ZM12.2159 8.66669C13.3204 8.66669 14.2159 7.77126 14.2159 6.66669C14.2159 5.56212 13.3204 4.66669 12.2159 4.66669C11.1113 4.66669 10.2159 5.56212 10.2159 6.66669C10.2159 7.77126 11.1113 8.66669 12.2159 8.66669ZM12.2159 9.66669C10.559 9.66669 9.21588 11.0098 9.21588 12.6667V14.6667C9.21588 15.219 9.6636 15.6667 10.2159 15.6667H14.2159C14.7682 15.6667 15.2159 15.219 15.2159 14.6667V12.6667C15.2159 11.0098 13.8727 9.66669 12.2159 9.66669Z" fill="white"/>
</svg>
